<svg viewBox="0 0 400 300" xmlns="http://www.w3.org/2000/svg">
  <defs>
    <linearGradient id="platformGradient" x1="0%" y1="0%" x2="100%" y2="100%">
      <stop offset="0%" style="stop-color:#10b981;stop-opacity:1" />
      <stop offset="100%" style="stop-color:#047857;stop-opacity:1" />
    </linearGradient>
    <linearGradient id="cartGradient" x1="0%" y1="0%" x2="100%" y2="100%">
      <stop offset="0%" style="stop-color:#f59e0b;stop-opacity:1" />
      <stop offset="100%" style="stop-color:#d97706;stop-opacity:1" />
    </linearGradient>
    <linearGradient id="screenBg" x1="0%" y1="0%" x2="100%" y2="100%">
      <stop offset="0%" style="stop-color:#ffffff;stop-opacity:1" />
      <stop offset="100%" style="stop-color:#f8fafc;stop-opacity:1" />
    </linearGradient>
  </defs>
  
  <!-- Background -->
  <rect width="400" height="300" fill="#f1f5f9"/>
  
  <!-- Main e-commerce interface -->
  <g transform="translate(80, 40)">
    <!-- Browser window -->
    <rect x="0" y="0" width="240" height="160" rx="8" fill="#374151"/>
    <!-- Browser header -->
    <rect x="8" y="8" width="224" height="20" rx="4" fill="#4b5563"/>
    <circle cx="18" cy="18" r="3" fill="#ef4444"/>
    <circle cx="28" cy="18" r="3" fill="#f59e0b"/>
    <circle cx="38" cy="18" r="3" fill="#10b981"/>
    <rect x="50" y="14" width="120" height="8" rx="4" fill="#6b7280"/>
    <text x="55" y="20" font-family="Arial" font-size="6" fill="#d1d5db">shop.example.com</text>
    
    <!-- Screen content -->
    <rect x="8" y="32" width="224" height="120" rx="4" fill="url(#screenBg)"/>
    
    <!-- Header with logo and cart -->
    <rect x="16" y="40" width="208" height="16" rx="2" fill="url(#platformGradient)"/>
    <circle cx="24" cy="48" r="4" fill="white" opacity="0.9"/>
    <rect x="32" y="46" width="40" height="4" rx="2" fill="white" opacity="0.8"/>
    
    <!-- Shopping cart icon -->
    <g transform="translate(190, 44)">
      <rect x="0" y="2" width="12" height="8" rx="1" fill="white" opacity="0.9"/>
      <circle cx="3" cy="12" r="1.5" fill="white"/>
      <circle cx="9" cy="12" r="1.5" fill="white"/>
      <rect x="12" y="0" width="8" height="6" rx="1" fill="url(#cartGradient)"/>
      <text x="16" y="5" text-anchor="middle" font-family="Arial" font-size="4" fill="white" font-weight="bold">3</text>
    </g>
    
    <!-- Product grid -->
    <g transform="translate(16, 60)">
      <!-- Product 1 -->
      <rect x="0" y="0" width="48" height="60" rx="4" fill="white" stroke="#e5e7eb"/>
      <rect x="4" y="4" width="40" height="30" rx="2" fill="#f3f4f6"/>
      <rect x="8" y="8" width="32" height="22" rx="2" fill="url(#platformGradient)" opacity="0.3"/>
      <rect x="4" y="38" width="30" height="3" rx="1.5" fill="#374151"/>
      <rect x="4" y="44" width="20" height="2" rx="1" fill="#6b7280"/>
      <rect x="4" y="48" width="25" height="2" rx="1" fill="#6b7280"/>
      <rect x="32" y="52" width="12" height="6" rx="3" fill="url(#platformGradient)"/>
      <text x="38" y="56" text-anchor="middle" font-family="Arial" font-size="4" fill="white">Buy</text>
      
      <!-- Product 2 -->
      <rect x="52" y="0" width="48" height="60" rx="4" fill="white" stroke="#e5e7eb"/>
      <rect x="56" y="4" width="40" height="30" rx="2" fill="#f3f4f6"/>
      <rect x="60" y="8" width="32" height="22" rx="2" fill="url(#cartGradient)" opacity="0.3"/>
      <rect x="56" y="38" width="30" height="3" rx="1.5" fill="#374151"/>
      <rect x="56" y="44" width="20" height="2" rx="1" fill="#6b7280"/>
      <rect x="56" y="48" width="25" height="2" rx="1" fill="#6b7280"/>
      <rect x="84" y="52" width="12" height="6" rx="3" fill="url(#cartGradient)"/>
      <text x="90" y="56" text-anchor="middle" font-family="Arial" font-size="4" fill="white">Buy</text>
      
      <!-- Product 3 -->
      <rect x="104" y="0" width="48" height="60" rx="4" fill="white" stroke="#e5e7eb"/>
      <rect x="108" y="4" width="40" height="30" rx="2" fill="#f3f4f6"/>
      <rect x="112" y="8" width="32" height="22" rx="2" fill="#8b5cf6" opacity="0.3"/>
      <rect x="108" y="38" width="30" height="3" rx="1.5" fill="#374151"/>
      <rect x="108" y="44" width="20" height="2" rx="1" fill="#6b7280"/>
      <rect x="108" y="48" width="25" height="2" rx="1" fill="#6b7280"/>
      <rect x="136" y="52" width="12" height="6" rx="3" fill="#8b5cf6"/>
      <text x="142" y="56" text-anchor="middle" font-family="Arial" font-size="4" fill="white">Buy</text>
      
      <!-- Product 4 -->
      <rect x="156" y="0" width="48" height="60" rx="4" fill="white" stroke="#e5e7eb"/>
      <rect x="160" y="4" width="40" height="30" rx="2" fill="#f3f4f6"/>
      <rect x="164" y="8" width="32" height="22" rx="2" fill="#ef4444" opacity="0.3"/>
      <rect x="160" y="38" width="30" height="3" rx="1.5" fill="#374151"/>
      <rect x="160" y="44" width="20" height="2" rx="1" fill="#6b7280"/>
      <rect x="160" y="48" width="25" height="2" rx="1" fill="#6b7280"/>
      <rect x="188" y="52" width="12" height="6" rx="3" fill="#ef4444"/>
      <text x="194" y="56" text-anchor="middle" font-family="Arial" font-size="4" fill="white">Buy</text>
    </g>
    
    <!-- Search bar -->
    <rect x="16" y="124" width="160" height="12" rx="6" fill="white" stroke="#d1d5db"/>
    <circle cx="24" cy="130" r="3" fill="#9ca3af"/>
    <rect x="30" y="128" width="60" height="4" rx="2" fill="#e5e7eb"/>
    <rect x="180" y="126" width="20" height="8" rx="4" fill="url(#platformGradient)"/>
    <text x="190" y="131" text-anchor="middle" font-family="Arial" font-size="5" fill="white">Search</text>
  </g>
  
  <!-- Shopping cart sidebar -->
  <g transform="translate(20, 80)">
    <rect x="0" y="0" width="50" height="120" rx="6" fill="white" stroke="#e5e7eb" stroke-width="2"/>
    <rect x="4" y="4" width="42" height="12" rx="2" fill="url(#cartGradient)"/>
    <text x="25" y="12" text-anchor="middle" font-family="Arial" font-size="7" fill="white" font-weight="bold">Cart (3)</text>
    
    <!-- Cart items -->
    <g transform="translate(4, 20)">
      <!-- Item 1 -->
      <rect x="0" y="0" width="42" height="20" rx="2" fill="#f9fafb"/>
      <rect x="2" y="2" width="12" height="16" rx="1" fill="url(#platformGradient)" opacity="0.3"/>
      <rect x="16" y="3" width="20" height="2" rx="1" fill="#374151"/>
      <rect x="16" y="7" width="15" height="1.5" rx="0.75" fill="#6b7280"/>
      <rect x="16" y="10" width="12" height="1.5" rx="0.75" fill="#10b981"/>
      <rect x="32" y="14" width="8" height="4" rx="2" fill="#ef4444"/>
      <text x="36" y="17" text-anchor="middle" font-family="Arial" font-size="3" fill="white">×</text>
      
      <!-- Item 2 -->
      <rect x="0" y="24" width="42" height="20" rx="2" fill="#f9fafb"/>
      <rect x="2" y="26" width="12" height="16" rx="1" fill="url(#cartGradient)" opacity="0.3"/>
      <rect x="16" y="27" width="20" height="2" rx="1" fill="#374151"/>
      <rect x="16" y="31" width="15" height="1.5" rx="0.75" fill="#6b7280"/>
      <rect x="16" y="34" width="12" height="1.5" rx="0.75" fill="#10b981"/>
      <rect x="32" y="38" width="8" height="4" rx="2" fill="#ef4444"/>
      <text x="36" y="41" text-anchor="middle" font-family="Arial" font-size="3" fill="white">×</text>
      
      <!-- Item 3 -->
      <rect x="0" y="48" width="42" height="20" rx="2" fill="#f9fafb"/>
      <rect x="2" y="50" width="12" height="16" rx="1" fill="#8b5cf6" opacity="0.3"/>
      <rect x="16" y="51" width="20" height="2" rx="1" fill="#374151"/>
      <rect x="16" y="55" width="15" height="1.5" rx="0.75" fill="#6b7280"/>
      <rect x="16" y="58" width="12" height="1.5" rx="0.75" fill="#10b981"/>
      <rect x="32" y="62" width="8" height="4" rx="2" fill="#ef4444"/>
      <text x="36" y="65" text-anchor="middle" font-family="Arial" font-size="3" fill="white">×</text>
    </g>
    
    <!-- Total and checkout -->
    <rect x="4" y="92" width="42" height="8" rx="2" fill="#f3f4f6"/>
    <text x="25" y="98" text-anchor="middle" font-family="Arial" font-size="6" fill="#374151" font-weight="bold">Total: $127.50</text>
    
    <rect x="4" y="104" width="42" height="12" rx="6" fill="url(#platformGradient)"/>
    <text x="25" y="112" text-anchor="middle" font-family="Arial" font-size="7" fill="white" font-weight="bold">Checkout</text>
  </g>
  
  <!-- Payment methods -->
  <g transform="translate(340, 80)">
    <rect x="0" y="0" width="50" height="80" rx="6" fill="white" stroke="#e5e7eb"/>
    <text x="25" y="12" text-anchor="middle" font-family="Arial" font-size="7" fill="#374151" font-weight="bold">Payment</text>
    
    <!-- Credit card -->
    <rect x="5" y="18" width="40" height="12" rx="2" fill="#1f2937"/>
    <rect x="8" y="21" width="8" height="6" rx="1" fill="#f59e0b"/>
    <rect x="18" y="23" width="20" height="2" rx="1" fill="#d1d5db"/>
    
    <!-- PayPal -->
    <rect x="5" y="34" width="40" height="12" rx="2" fill="#0070ba"/>
    <text x="25" y="42" text-anchor="middle" font-family="Arial" font-size="6" fill="white" font-weight="bold">PayPal</text>
    
    <!-- Apple Pay -->
    <rect x="5" y="50" width="40" height="12" rx="2" fill="#000000"/>
    <text x="25" y="58" text-anchor="middle" font-family="Arial" font-size="6" fill="white" font-weight="bold">Apple Pay</text>
    
    <!-- Security badge -->
    <circle cx="25" cy="70" r="6" fill="#10b981"/>
    <text x="25" y="73" text-anchor="middle" font-family="Arial" font-size="6" fill="white" font-weight="bold">🔒</text>
  </g>
  
  <!-- Analytics dashboard -->
  <g transform="translate(80, 220)">
    <rect x="0" y="0" width="240" height="60" rx="6" fill="white" stroke="#e5e7eb"/>
    <text x="120" y="12" text-anchor="middle" font-family="Arial" font-size="8" fill="#374151" font-weight="bold">Sales Analytics</text>
    
    <!-- Revenue chart -->
    <g transform="translate(10, 20)">
      <rect x="0" y="20" width="3" height="15" fill="url(#platformGradient)"/>
      <rect x="6" y="15" width="3" height="20" fill="url(#platformGradient)"/>
      <rect x="12" y="10" width="3" height="25" fill="url(#platformGradient)"/>
      <rect x="18" y="18" width="3" height="17" fill="url(#platformGradient)"/>
      <rect x="24" y="8" width="3" height="27" fill="url(#platformGradient)"/>
      <rect x="30" y="12" width="3" height="23" fill="url(#platformGradient)"/>
      <rect x="36" y="5" width="3" height="30" fill="url(#platformGradient)"/>
      <text x="20" y="45" text-anchor="middle" font-family="Arial" font-size="6" fill="#6b7280">Revenue</text>
    </g>
    
    <!-- Key metrics -->
    <g transform="translate(60, 20)">
      <rect x="0" y="0" width="50" height="15" rx="2" fill="#f0fdf4"/>
      <text x="25" y="6" text-anchor="middle" font-family="Arial" font-size="5" fill="#166534" font-weight="bold">Orders: 1,247</text>
      <text x="25" y="12" text-anchor="middle" font-family="Arial" font-size="5" fill="#16a34a">+12% this month</text>
      
      <rect x="0" y="20" width="50" height="15" rx="2" fill="#fef3c7"/>
      <text x="25" y="26" text-anchor="middle" font-family="Arial" font-size="5" fill="#92400e" font-weight="bold">Revenue: $45.2K</text>
      <text x="25" y="32" text-anchor="middle" font-family="Arial" font-size="5" fill="#d97706">+8% this month</text>
    </g>
    
    <!-- Customer data -->
    <g transform="translate(120, 20)">
      <circle cx="15" cy="10" r="8" fill="url(#platformGradient)" opacity="0.2"/>
      <circle cx="15" cy="10" r="5" fill="url(#platformGradient)"/>
      <text x="15" y="25" text-anchor="middle" font-family="Arial" font-size="5" fill="#065f46">Active Users</text>
      <text x="15" y="32" text-anchor="middle" font-family="Arial" font-size="6" fill="#374151" font-weight="bold">2,847</text>
    </g>
    
    <!-- Conversion rate -->
    <g transform="translate(160, 20)">
      <rect x="0" y="0" width="30" height="4" rx="2" fill="#e5e7eb"/>
      <rect x="0" y="0" width="21" height="4" rx="2" fill="url(#cartGradient)"/>
      <text x="15" y="12" text-anchor="middle" font-family="Arial" font-size="5" fill="#92400e">Conversion</text>
      <text x="15" y="18" text-anchor="middle" font-family="Arial" font-size="6" fill="#374151" font-weight="bold">3.2%</text>
    </g>
    
    <!-- Inventory status -->
    <g transform="translate(200, 20)">
      <rect x="0" y="0" width="25" height="15" rx="2" fill="#fef2f2"/>
      <text x="12.5" y="6" text-anchor="middle" font-family="Arial" font-size="4" fill="#991b1b" font-weight="bold">Low Stock</text>
      <text x="12.5" y="11" text-anchor="middle" font-family="Arial" font-size="4" fill="#dc2626">12 items</text>
      
      <rect x="0" y="20" width="25" height="15" rx="2" fill="#f0fdf4"/>
      <text x="12.5" y="26" text-anchor="middle" font-family="Arial" font-size="4" fill="#166534" font-weight="bold">In Stock</text>
      <text x="12.5" y="31" text-anchor="middle" font-family="Arial" font-size="4" fill="#16a34a">847 items</text>
    </g>
  </g>
</svg>