<svg viewBox="0 0 400 300" xmlns="http://www.w3.org/2000/svg">
  <defs>
    <linearGradient id="appGradient1" x1="0%" y1="0%" x2="100%" y2="100%">
      <stop offset="0%" style="stop-color:#8b5cf6;stop-opacity:1" />
      <stop offset="100%" style="stop-color:#6d28d9;stop-opacity:1" />
    </linearGradient>
    <linearGradient id="appGradient2" x1="0%" y1="0%" x2="100%" y2="100%">
      <stop offset="0%" style="stop-color:#06b6d4;stop-opacity:1" />
      <stop offset="100%" style="stop-color:#0891b2;stop-opacity:1" />
    </linearGradient>
    <linearGradient id="phoneGradient" x1="0%" y1="0%" x2="100%" y2="100%">
      <stop offset="0%" style="stop-color:#1f2937;stop-opacity:1" />
      <stop offset="100%" style="stop-color:#111827;stop-opacity:1" />
    </linearGradient>
    <linearGradient id="screenGlow" x1="0%" y1="0%" x2="100%" y2="100%">
      <stop offset="0%" style="stop-color:#ffffff;stop-opacity:1" />
      <stop offset="100%" style="stop-color:#f8fafc;stop-opacity:1" />
    </linearGradient>
  </defs>
  
  <!-- Background -->
  <rect width="400" height="300" fill="#f1f5f9"/>
  
  <!-- Main phone mockup -->
  <g transform="translate(150, 30)">
    <!-- Phone frame -->
    <rect x="0" y="0" width="100" height="180" rx="20" fill="url(#phoneGradient)"/>
    <!-- Screen -->
    <rect x="8" y="15" width="84" height="150" rx="12" fill="url(#screenGlow)"/>
    
    <!-- Status bar -->
    <rect x="12" y="19" width="76" height="8" fill="transparent"/>
    <text x="16" y="25" font-family="Arial" font-size="5" fill="#374151">9:41</text>
    <circle cx="70" cy="23" r="2" fill="#10b981"/>
    <rect x="74" y="21" width="8" height="4" rx="1" fill="#374151"/>
    <rect x="84" y="22" width="4" height="2" rx="1" fill="#374151"/>
    
    <!-- App header -->
    <rect x="12" y="31" width="76" height="20" rx="4" fill="url(#appGradient1)"/>
    <circle cx="20" cy="41" r="4" fill="white" opacity="0.9"/>
    <rect x="28" y="38" width="30" height="6" rx="3" fill="white" opacity="0.8"/>
    <circle cx="80" cy="41" r="3" fill="white" opacity="0.7"/>
    
    <!-- Navigation tabs -->
    <g transform="translate(12, 55)">
      <rect x="0" y="0" width="76" height="12" fill="#f8fafc"/>
      <rect x="2" y="2" width="18" height="8" rx="4" fill="url(#appGradient1)"/>
      <text x="11" y="7" text-anchor="middle" font-family="Arial" font-size="4" fill="white">Home</text>
      <rect x="22" y="2" width="18" height="8" rx="4" fill="#e2e8f0"/>
      <text x="31" y="7" text-anchor="middle" font-family="Arial" font-size="4" fill="#64748b">Search</text>
      <rect x="42" y="2" width="18" height="8" rx="4" fill="#e2e8f0"/>
      <text x="51" y="7" text-anchor="middle" font-family="Arial" font-size="4" fill="#64748b">Profile</text>
      <rect x="62" y="2" width="12" height="8" rx="4" fill="#e2e8f0"/>
      <text x="68" y="7" text-anchor="middle" font-family="Arial" font-size="4" fill="#64748b">More</text>
    </g>
    
    <!-- Content area -->
    <g transform="translate(12, 71)">
      <!-- Feature cards -->
      <rect x="0" y="0" width="76" height="25" rx="6" fill="white" stroke="#e5e7eb"/>
      <rect x="4" y="4" width="68" height="8" rx="2" fill="url(#appGradient2)" opacity="0.2"/>
      <circle cx="8" cy="8" r="2" fill="url(#appGradient2)"/>
      <rect x="14" y="6" width="30" height="4" rx="2" fill="url(#appGradient2)"/>
      <rect x="4" y="16" width="50" height="2" rx="1" fill="#64748b"/>
      <rect x="4" y="20" width="40" height="2" rx="1" fill="#94a3b8"/>
      <rect x="60" y="15" width="12" height="6" rx="3" fill="url(#appGradient1)"/>
      <text x="66" y="19" text-anchor="middle" font-family="Arial" font-size="3" fill="white">View</text>
      
      <!-- List items -->
      <rect x="0" y="30" width="76" height="15" rx="4" fill="white" stroke="#e5e7eb"/>
      <circle cx="8" cy="37.5" r="3" fill="url(#appGradient1)" opacity="0.3"/>
      <rect x="16" y="34" width="35" height="3" rx="1.5" fill="#374151"/>
      <rect x="16" y="39" width="25" height="2" rx="1" fill="#6b7280"/>
      <circle cx="68" cy="37.5" r="2" fill="#10b981"/>
      
      <rect x="0" y="48" width="76" height="15" rx="4" fill="white" stroke="#e5e7eb"/>
      <circle cx="8" cy="55.5" r="3" fill="url(#appGradient2)" opacity="0.3"/>
      <rect x="16" y="52" width="35" height="3" rx="1.5" fill="#374151"/>
      <rect x="16" y="57" width="25" height="2" rx="1" fill="#6b7280"/>
      <circle cx="68" cy="55.5" r="2" fill="#f59e0b"/>
      
      <rect x="0" y="66" width="76" height="15" rx="4" fill="white" stroke="#e5e7eb"/>
      <circle cx="8" cy="73.5" r="3" fill="#ef4444" opacity="0.3"/>
      <rect x="16" y="70" width="35" height="3" rx="1.5" fill="#374151"/>
      <rect x="16" y="75" width="25" height="2" rx="1" fill="#6b7280"/>
      <circle cx="68" cy="73.5" r="2" fill="#ef4444"/>
    </g>
    
    <!-- Bottom navigation -->
    <rect x="12" y="155" width="76" height="12" rx="6" fill="white" stroke="#e5e7eb"/>
    <g transform="translate(12, 155)">
      <rect x="4" y="3" width="12" height="6" rx="3" fill="url(#appGradient1)"/>
      <circle cx="10" cy="6" r="1.5" fill="white"/>
      
      <rect x="20" y="3" width="12" height="6" rx="3" fill="#f1f5f9"/>
      <circle cx="26" cy="6" r="1.5" fill="#64748b"/>
      
      <rect x="36" y="3" width="12" height="6" rx="3" fill="#f1f5f9"/>
      <rect x="40" y="5" width="4" height="2" rx="1" fill="#64748b"/>
      
      <rect x="52" y="3" width="12" height="6" rx="3" fill="#f1f5f9"/>
      <circle cx="58" cy="6" r="1.5" fill="#64748b"/>
      
      <rect x="68" y="3" width="4" height="6" rx="2" fill="#f1f5f9"/>
      <rect x="69" y="4" width="2" height="1" rx="0.5" fill="#64748b"/>
      <rect x="69" y="6" width="2" height="1" rx="0.5" fill="#64748b"/>
      <rect x="69" y="8" width="2" height="1" rx="0.5" fill="#64748b"/>
    </g>
    
    <!-- Home indicator -->
    <rect x="40" y="170" width="20" height="3" rx="1.5" fill="#9ca3af"/>
  </g>
  
  <!-- App features showcase -->
  <g transform="translate(30, 50)">
    <!-- Feature 1: Push Notifications -->
    <rect x="0" y="0" width="80" height="30" rx="6" fill="white" stroke="#e5e7eb"/>
    <circle cx="12" cy="15" r="6" fill="url(#appGradient1)" opacity="0.2"/>
    <circle cx="12" cy="15" r="3" fill="url(#appGradient1)"/>
    <text x="12" y="17" text-anchor="middle" font-family="Arial" font-size="6" fill="white">🔔</text>
    <text x="25" y="12" font-family="Arial" font-size="7" fill="#374151" font-weight="bold">Push Notifications</text>
    <text x="25" y="20" font-family="Arial" font-size="5" fill="#6b7280">Real-time alerts</text>
    
    <!-- Feature 2: Offline Mode -->
    <rect x="0" y="35" width="80" height="30" rx="6" fill="white" stroke="#e5e7eb"/>
    <circle cx="12" cy="50" r="6" fill="url(#appGradient2)" opacity="0.2"/>
    <circle cx="12" cy="50" r="3" fill="url(#appGradient2)"/>
    <text x="12" y="52" text-anchor="middle" font-family="Arial" font-size="6" fill="white">📱</text>
    <text x="25" y="47" font-family="Arial" font-size="7" fill="#374151" font-weight="bold">Offline Mode</text>
    <text x="25" y="55" font-family="Arial" font-size="5" fill="#6b7280">Works without internet</text>
    
    <!-- Feature 3: Biometric Auth -->
    <rect x="0" y="70" width="80" height="30" rx="6" fill="white" stroke="#e5e7eb"/>
    <circle cx="12" cy="85" r="6" fill="#10b981" opacity="0.2"/>
    <circle cx="12" cy="85" r="3" fill="#10b981"/>
    <text x="12" y="87" text-anchor="middle" font-family="Arial" font-size="6" fill="white">🔒</text>
    <text x="25" y="82" font-family="Arial" font-size="7" fill="#374151" font-weight="bold">Biometric Auth</text>
    <text x="25" y="90" font-family="Arial" font-size="5" fill="#6b7280">Secure login</text>
  </g>
  
  <!-- Development tools -->
  <g transform="translate(280, 50)">
    <!-- React Native -->
    <rect x="0" y="0" width="80" height="25" rx="4" fill="#61dafb" opacity="0.1"/>
    <circle cx="12" cy="12.5" r="6" fill="#61dafb"/>
    <text x="12" y="15" text-anchor="middle" font-family="Arial" font-size="6" fill="white" font-weight="bold">⚛</text>
    <text x="25" y="10" font-family="Arial" font-size="7" fill="#374151" font-weight="bold">React Native</text>
    <text x="25" y="17" font-family="Arial" font-size="5" fill="#0891b2">Cross-platform</text>
    
    <!-- Firebase -->
    <rect x="0" y="30" width="80" height="25" rx="4" fill="#ff6b35" opacity="0.1"/>
    <circle cx="12" cy="42.5" r="6" fill="#ff6b35"/>
    <text x="12" y="45" text-anchor="middle" font-family="Arial" font-size="6" fill="white" font-weight="bold">🔥</text>
    <text x="25" y="40" font-family="Arial" font-size="7" fill="#374151" font-weight="bold">Firebase</text>
    <text x="25" y="47" font-family="Arial" font-size="5" fill="#dc2626">Backend services</text>
    
    <!-- App Store -->
    <rect x="0" y="60" width="80" height="25" rx="4" fill="#007aff" opacity="0.1"/>
    <circle cx="12" cy="72.5" r="6" fill="#007aff"/>
    <text x="12" y="75" text-anchor="middle" font-family="Arial" font-size="6" fill="white" font-weight="bold">📱</text>
    <text x="25" y="70" font-family="Arial" font-size="7" fill="#374151" font-weight="bold">App Store</text>
    <text x="25" y="77" font-family="Arial" font-size="5" fill="#1d4ed8">Ready to publish</text>
    
    <!-- Performance -->
    <rect x="0" y="90" width="80" height="25" rx="4" fill="#10b981" opacity="0.1"/>
    <circle cx="12" cy="102.5" r="6" fill="#10b981"/>
    <text x="12" y="105" text-anchor="middle" font-family="Arial" font-size="6" fill="white" font-weight="bold">⚡</text>
    <text x="25" y="100" font-family="Arial" font-size="7" fill="#374151" font-weight="bold">Optimized</text>
    <text x="25" y="107" font-family="Arial" font-size="5" fill="#047857">60fps smooth</text>
  </g>
  
  <!-- App analytics -->
  <g transform="translate(50, 230)">
    <rect x="0" y="0" width="300" height="50" rx="6" fill="white" stroke="#e5e7eb"/>
    <text x="150" y="12" text-anchor="middle" font-family="Arial" font-size="8" fill="#374151" font-weight="bold">App Performance Metrics</text>
    
    <!-- Downloads -->
    <g transform="translate(20, 20)">
      <circle cx="15" cy="10" r="8" fill="url(#appGradient1)" opacity="0.2"/>
      <circle cx="15" cy="10" r="5" fill="url(#appGradient1)"/>
      <text x="15" y="25" text-anchor="middle" font-family="Arial" font-size="6" fill="#581c87" font-weight="bold">Downloads</text>
      <text x="15" y="32" text-anchor="middle" font-family="Arial" font-size="7" fill="#374151">50K+</text>
    </g>
    
    <!-- Rating -->
    <g transform="translate(80, 20)">
      <polygon points="15,5 18,12 25,12 20,17 22,24 15,20 8,24 10,17 5,12 12,12" fill="#fbbf24"/>
      <text x="15" y="32" text-anchor="middle" font-family="Arial" font-size="6" fill="#92400e" font-weight="bold">Rating</text>
      <text x="15" y="39" text-anchor="middle" font-family="Arial" font-size="7" fill="#374151">4.8/5</text>
    </g>
    
    <!-- Active Users -->
    <g transform="translate(140, 20)">
      <circle cx="15" cy="10" r="8" fill="url(#appGradient2)" opacity="0.2"/>
      <circle cx="15" cy="10" r="5" fill="url(#appGradient2)"/>
      <text x="15" y="25" text-anchor="middle" font-family="Arial" font-size="6" fill="#0891b2" font-weight="bold">Active Users</text>
      <text x="15" y="32" text-anchor="middle" font-family="Arial" font-size="7" fill="#374151">12K</text>
    </g>
    
    <!-- Retention -->
    <g transform="translate(200, 20)">
      <rect x="5" y="5" width="20" height="3" rx="1.5" fill="#e5e7eb"/>
      <rect x="5" y="5" width="16" height="3" rx="1.5" fill="#10b981"/>
      <text x="15" y="18" text-anchor="middle" font-family="Arial" font-size="6" fill="#065f46" font-weight="bold">Retention</text>
      <text x="15" y="25" text-anchor="middle" font-family="Arial" font-size="7" fill="#374151">80%</text>
    </g>
    
    <!-- Revenue -->
    <g transform="translate(260, 20)">
      <rect x="5" y="5" width="20" height="10" rx="2" fill="#f59e0b" opacity="0.2"/>
      <rect x="8" y="8" width="14" height="4" rx="1" fill="#f59e0b"/>
      <text x="15" y="25" text-anchor="middle" font-family="Arial" font-size="6" fill="#92400e" font-weight="bold">Revenue</text>
      <text x="15" y="32" text-anchor="middle" font-family="Arial" font-size="7" fill="#374151">$25K</text>
    </g>
  </g>
  
  <!-- Code snippet -->
  <g transform="translate(30, 120)">
    <rect x="0" y="0" width="100" height="40" rx="4" fill="#1f2937"/>
    <text x="5" y="10" font-family="monospace" font-size="5" fill="#10b981">import React from 'react';</text>
    <text x="5" y="17" font-family="monospace" font-size="5" fill="#e2e8f0">const App = () => {</text>
    <text x="10" y="24" font-family="monospace" font-size="5" fill="#e2e8f0">return &lt;View&gt;...&lt;/View&gt;;</text>
    <text x="5" y="31" font-family="monospace" font-size="5" fill="#e2e8f0">};</text>
    <text x="5" y="38" font-family="monospace" font-size="5" fill="#10b981">export default App;</text>
  </g>
</svg>